<svg class="animated" id="freepik_stories-relaxing-at-home" xmlns="http://www.w3.org/2000/svg" viewBox="0 0 500 500" version="1.1" xmlns:xlink="http://www.w3.org/1999/xlink" xmlns:svgjs="http://svgjs.com/svgjs"><style>svg#freepik_stories-relaxing-at-home:not(.animated) .animable {opacity: 0;}svg#freepik_stories-relaxing-at-home.animated #freepik--background-complete--inject-19 {animation: 1s 1 forwards cubic-bezier(.36,-0.01,.5,1.38) slideDown,1.5s Infinite  linear floating;animation-delay: 0s,1s;}svg#freepik_stories-relaxing-at-home.animated #freepik--Floor--inject-19 {animation: 1s 1 forwards cubic-bezier(.36,-0.01,.5,1.38) slideUp;animation-delay: 0s;}svg#freepik_stories-relaxing-at-home.animated #freepik--Plant--inject-19 {animation: 1s 1 forwards cubic-bezier(.36,-0.01,.5,1.38) slideUp;animation-delay: 0s;}svg#freepik_stories-relaxing-at-home.animated #freepik--Character--inject-19 {animation: 1s 1 forwards cubic-bezier(.36,-0.01,.5,1.38) slideLeft;animation-delay: 0s;}            @keyframes slideDown {                0% {                    opacity: 0;                    transform: translateY(-30px);                }                100% {                    opacity: 1;                    transform: translateY(0);                }            }                    @keyframes floating {                0% {                    opacity: 1;                    transform: translateY(0px);                }                50% {                    transform: translateY(-10px);                }                100% {                    opacity: 1;                    transform: translateY(0px);                }            }                    @keyframes slideUp {                0% {                    opacity: 0;                    transform: translateY(30px);                }                100% {                    opacity: 1;                    transform: inherit;                }            }                    @keyframes slideLeft {                0% {                    opacity: 0;                    transform: translateX(-30px);                }                100% {                    opacity: 1;                    transform: translateX(0);                }            }        </style><g id="freepik--background-complete--inject-19" class="animable" style="transform-origin: 267.95px 160.955px;"><rect x="309.45" y="32.29" width="141.76" height="254.66" style="fill: rgb(235, 235, 235); transform-origin: 380.33px 159.62px;" id="elk6aq7jsyh7" class="animable"></rect><rect x="315.12" y="39.67" width="128.97" height="239.69" style="fill: rgb(250, 250, 250); transform-origin: 379.605px 159.515px;" id="el9brjbkngy6" class="animable"></rect><polygon points="457.2 289.24 451.21 286.95 451.21 27.97 457.2 27.97 457.2 289.24" style="fill: rgb(224, 224, 224); transform-origin: 454.205px 158.605px;" id="ellif99im1us7" class="animable"></polygon><path d="M346.73,194.5l33.5-31.14c4.24-3.94,9.79-8.19,15.25-6.25,2.62.94,4.6,3.18,7.17,4.25,5.14,2.15,11-1,15-4.87s7.08-8.83,11.86-11.68,12.24-2.48,14.6,2.56v33.88l-48.67,20.84Z" style="fill: rgb(245, 245, 245); transform-origin: 395.42px 172.559px;" id="el69v4cexkfkg" class="animable"></path><path d="M315.12,175c12.34-5,24.66-.75,33.49,9.23,1.86,2.1,3.55,4.52,6.11,5.68,3.46,1.57,7.45.4,11.23,0a28.23,28.23,0,0,1,26.56,12.88L351.31,223l-36.19-.26Z" style="fill: rgb(224, 224, 224); transform-origin: 353.815px 197.949px;" id="eltoowm8zov4o" class="animable"></path><path d="M444.08,175.19C436,171.26,428.8,176,421.3,181S406.83,192.51,398,194.53c-5.87,1.36-12.17.61-17.85,2.63-11.58,4.12-18.28,18.82-30.54,19.52C343,217.06,337,213,331.05,210s-10.63-5.91-15.93-1.86v71.22h129Z" style="fill: rgb(235, 235, 235); transform-origin: 379.62px 226.548px;" id="el9wovj3ov4jt" class="animable"></path><rect x="315.12" y="108.62" width="131.77" height="2.55" style="fill: rgb(224, 224, 224); transform-origin: 381.005px 109.895px;" id="ellioulh11bbp" class="animable"></rect><rect x="315.12" y="165.7" width="131.77" height="2.55" style="fill: rgb(224, 224, 224); transform-origin: 381.005px 166.975px;" id="el18nvur773tx" class="animable"></rect><rect x="315.12" y="222.78" width="131.77" height="2.55" style="fill: rgb(224, 224, 224); transform-origin: 381.005px 224.055px;" id="elgrf90sawwq" class="animable"></rect><g id="eldam5mqyb0jm"><rect x="291.47" y="194.77" width="176.26" height="6.52" style="fill: rgb(224, 224, 224); transform-origin: 379.6px 198.03px; transform: rotate(-90deg);" class="animable"></rect></g><rect x="339.95" y="39.67" width="2.95" height="70.23" style="fill: rgb(224, 224, 224); transform-origin: 341.425px 74.785px;" id="elrdmpwpjcqzh" class="animable"></rect><rect x="365.41" y="39.67" width="2.95" height="70.23" style="fill: rgb(224, 224, 224); transform-origin: 366.885px 74.785px;" id="eleemha7kkbnk" class="animable"></rect><rect x="390.87" y="39.67" width="2.95" height="70.23" style="fill: rgb(224, 224, 224); transform-origin: 392.345px 74.785px;" id="elfv6e2lfhub8" class="animable"></rect><rect x="416.33" y="39.67" width="2.95" height="70.23" style="fill: rgb(224, 224, 224); transform-origin: 417.805px 74.785px;" id="eliikr2iwxvh" class="animable"></rect><rect x="303.46" y="27.97" width="6" height="260.55" style="fill: rgb(224, 224, 224); transform-origin: 306.46px 158.245px;" id="elouku312f04" class="animable"></rect><rect x="303.46" y="25.34" width="153.75" height="6.95" style="fill: rgb(224, 224, 224); transform-origin: 380.335px 28.815px;" id="elmsp7jy7y2ye" class="animable"></rect><rect x="299.2" y="290.1" width="162.06" height="6.47" style="fill: rgb(224, 224, 224); transform-origin: 380.23px 293.335px;" id="elf6h0otna3n4" class="animable"></rect><polygon points="451.21 286.95 461.26 290.1 299.2 290.1 309.45 286.95 451.21 286.95" style="fill: rgb(224, 224, 224); transform-origin: 380.23px 288.525px;" id="elza3ylg4osl" class="animable"></polygon><rect x="78.28" y="36.08" width="72.63" height="105.27" style="fill: rgb(224, 224, 224); transform-origin: 114.595px 88.715px;" id="eljlmhnhgwws" class="animable"></rect><rect x="74.65" y="36.08" width="72.63" height="105.27" style="fill: rgb(245, 245, 245); transform-origin: 110.965px 88.715px;" id="elugrq41flheb" class="animable"></rect><rect x="83.67" y="47.48" width="54.58" height="82.47" style="fill: rgb(255, 255, 255); transform-origin: 110.96px 88.715px;" id="elhpcoo71b3vp" class="animable"></rect><path d="M138.25,130s0-.14,0-.4,0-.66,0-1.17c0-1,0-2.55,0-4.52,0-4,0-9.71-.05-17,0-14.54,0-35.14-.09-59.39l.18.19H83.67l.2-.2c0,31.12,0,59.8,0,82.47l-.16-.15,39.73.08,11,0,2.89,0h1l-1,0-2.85,0-10.94,0-39.83.08h-.16V130c0-22.67,0-51.35,0-82.47v-.19h55v.18c0,24.3-.06,44.94-.09,59.51,0,7.26,0,13-.05,17,0,2,0,3.45,0,4.48,0,.5,0,.88,0,1.15S138.25,130,138.25,130Z" style="fill: rgb(224, 224, 224); transform-origin: 111.05px 88.67px;" id="elz3bli88fb6d" class="animable"></path><path d="M147.48,36.08a11.72,11.72,0,0,1-1.3,1.88c-.84,1.13-2,2.67-3.4,4.33s-2.65,3.12-3.59,4.17a12.79,12.79,0,0,1-1.6,1.63A13.24,13.24,0,0,1,139,46.28l3.5-4.25C143.8,40.43,145,39,146,37.79A13.54,13.54,0,0,1,147.48,36.08Z" style="fill: rgb(224, 224, 224); transform-origin: 142.535px 42.085px;" id="elcmctpvhy9xd" class="animable"></path><path d="M138.53,129.69a67.38,67.38,0,0,0,9.52,11.9" style="fill: rgb(255, 255, 255); transform-origin: 143.29px 135.64px;" id="elpy3des3das" class="animable"></path><path d="M148.05,141.59a10.22,10.22,0,0,1-1.66-1.51A49.18,49.18,0,0,1,142.8,136a50.76,50.76,0,0,1-3.16-4.39,10.8,10.8,0,0,1-1.11-1.95,14.83,14.83,0,0,1,1.34,1.79c.8,1.13,1.92,2.66,3.24,4.31s2.56,3.07,3.48,4.1A15.86,15.86,0,0,1,148.05,141.59Z" style="fill: rgb(224, 224, 224); transform-origin: 143.29px 135.625px;" id="elm91czymvili" class="animable"></path><path d="M74.64,141.27l9.51-11.74" style="fill: rgb(255, 255, 255); transform-origin: 79.395px 135.4px;" id="elsqvzic5xfb" class="animable"></path><path d="M84.15,129.53a73.94,73.94,0,0,1-4.6,6,73.73,73.73,0,0,1-4.91,5.74,69.6,69.6,0,0,1,4.6-6A74.88,74.88,0,0,1,84.15,129.53Z" style="fill: rgb(224, 224, 224); transform-origin: 79.395px 135.4px;" id="elvfnj2x1rzmf" class="animable"></path><path d="M74.65,36.08a67.58,67.58,0,0,1,4.61,5.52,63.53,63.53,0,0,1,4.31,5.77A68.79,68.79,0,0,1,79,41.85,64.46,64.46,0,0,1,74.65,36.08Z" style="fill: rgb(224, 224, 224); transform-origin: 79.11px 41.725px;" id="elfdo32480mzh" class="animable"></path><rect x="102.97" y="64.23" width="18.28" height="51.89" style="fill: rgb(224, 224, 224); transform-origin: 112.11px 90.175px;" id="el1vm6mv5c75j" class="animable"></rect><rect x="187.79" y="87.82" width="57.42" height="83.24" style="fill: rgb(224, 224, 224); transform-origin: 216.5px 129.44px;" id="elxq2zkla2sa" class="animable"></rect><rect x="184.91" y="87.82" width="57.42" height="83.24" style="fill: rgb(250, 250, 250); transform-origin: 213.62px 129.44px;" id="elx8ep8hfl3t" class="animable"></rect><rect x="192.04" y="96.84" width="43.16" height="65.21" style="fill: rgb(255, 255, 255); transform-origin: 213.62px 129.445px;" id="eloulreprwa4" class="animable"></rect><path d="M235.2,162s0-.11,0-.32v-.92c0-.82,0-2,0-3.58,0-3.12,0-7.68,0-13.43,0-11.5,0-27.78-.07-46.95l.14.14H192l.16-.15c0,24.59,0,47.27,0,65.2l-.13-.12,31.41.06,8.68,0,2.28,0h0l-2.26,0-8.65,0-31.49.07h-.12V162c0-17.93,0-40.61,0-65.2v-.16h43.45v.15c0,19.21-.05,35.52-.07,47,0,5.74,0,10.29,0,13.4,0,1.55,0,2.74,0,3.55,0,.4,0,.7,0,.91S235.2,162,235.2,162Z" style="fill: rgb(224, 224, 224); transform-origin: 213.605px 129.32px;" id="el75fhs24u4md" class="animable"></path><path d="M242.49,87.82a8.58,8.58,0,0,1-1,1.49c-.67.89-1.61,2.1-2.69,3.42s-2.09,2.47-2.84,3.3a11.92,11.92,0,0,1-1.26,1.29,9.64,9.64,0,0,1,1.09-1.44l2.77-3.35,2.76-3.36A11.84,11.84,0,0,1,242.49,87.82Z" style="fill: rgb(224, 224, 224); transform-origin: 238.595px 92.57px;" id="elp8kyxt7uwt" class="animable"></path><path d="M235.42,161.83a52.9,52.9,0,0,0,7.53,9.41" style="fill: rgb(255, 255, 255); transform-origin: 239.185px 166.535px;" id="elpcdqan73ds" class="animable"></path><path d="M243,171.24a8.34,8.34,0,0,1-1.32-1.19c-.77-.78-1.79-1.9-2.84-3.2a42.17,42.17,0,0,1-2.5-3.48,8.48,8.48,0,0,1-.87-1.54,13,13,0,0,1,1.06,1.42c.63.89,1.52,2.1,2.56,3.4s2,2.44,2.75,3.25A12.9,12.9,0,0,1,243,171.24Z" style="fill: rgb(224, 224, 224); transform-origin: 239.235px 166.535px;" id="el9ve8qqylocw" class="animable"></path><path d="M184.9,171l7.52-9.28" style="fill: rgb(255, 255, 255); transform-origin: 188.66px 166.36px;" id="elygoe50dw7t" class="animable"></path><path d="M192.42,161.71a55.94,55.94,0,0,1-3.64,4.74A56.34,56.34,0,0,1,184.9,171a55.94,55.94,0,0,1,3.64-4.74C190.62,163.69,192.36,161.66,192.42,161.71Z" style="fill: rgb(224, 224, 224); transform-origin: 188.66px 166.355px;" id="el2dt9yovofgw" class="animable"></path><path d="M184.91,87.82a52,52,0,0,1,3.65,4.37A54.83,54.83,0,0,1,192,96.74a49.71,49.71,0,0,1-3.66-4.36A52.4,52.4,0,0,1,184.91,87.82Z" style="fill: rgb(224, 224, 224); transform-origin: 188.455px 92.28px;" id="el0zd4o5o3u79" class="animable"></path><rect x="207.3" y="110.08" width="14.45" height="41.03" style="fill: rgb(245, 245, 245); transform-origin: 214.525px 130.595px;" id="el6ulvwjpjqxp" class="animable"></rect></g><g id="freepik--Floor--inject-19" class="animable animator-active" style="transform-origin: 257.735px 458.33px;"><path d="M485.41,438.4c0,.15-101.94.26-227.66.26s-227.69-.11-227.69-.26,101.92-.26,227.69-.26S485.41,438.26,485.41,438.4Z" style="fill: rgb(38, 50, 56); transform-origin: 257.735px 438.4px;" id="eltvhd8mzlgvp" class="animable"></path><path d="M452.3,478.26c0,.15-49.76.26-111.13.26S230,478.41,230,478.26s49.75-.26,111.14-.26S452.3,478.12,452.3,478.26Z" style="fill: rgb(38, 50, 56); transform-origin: 341.15px 478.26px;" id="eljoyx04b8jyt" class="animable"></path></g><g id="freepik--Plant--inject-19" class="animable" style="transform-origin: 431.676px 344.55px;"><path d="M425.32,413.56a2.63,2.63,0,0,1,.17-.4L426,412a29,29,0,0,0,1.61-4.68,41.2,41.2,0,0,0-.13-18.05,96.63,96.63,0,0,0-3.35-12.13c-1.42-4.31-3.07-8.87-4.41-13.81a53.46,53.46,0,0,1-2.18-15.87c.21-5.62,1.87-11.23,3.7-16.8s3.71-11.06,4.27-16.55a25.21,25.21,0,0,0-3-15.28c-2.42-4.46-5.46-8.27-7.74-12.22a42.65,42.65,0,0,1-4.66-11.75,43.69,43.69,0,0,1-.29-18.2,34,34,0,0,1,1.9-6.43,2.56,2.56,0,0,1-.11.42c-.1.31-.23.72-.39,1.24a47.62,47.62,0,0,0-1.18,4.81,44.31,44.31,0,0,0,.47,18.06,42.43,42.43,0,0,0,4.67,11.6c2.28,3.91,5.33,7.7,7.8,12.22a25.73,25.73,0,0,1,3.13,15.59c-.57,5.58-2.47,11.08-4.29,16.66s-3.47,11.13-3.68,16.65a53,53,0,0,0,2.13,15.71c1.32,4.91,2.94,9.48,4.34,13.8a94.28,94.28,0,0,1,3.3,12.2c1.53,7.6,1.09,14-.05,18.19a26.55,26.55,0,0,1-1.72,4.67l-.6,1.14A2.09,2.09,0,0,1,425.32,413.56Z" style="fill: rgb(38, 50, 56); transform-origin: 418.948px 331.895px;" id="ele2vb5ic7lw" class="animable"></path><path d="M417.86,290.49s-4.62-14.79,3.68-23.45a.5.5,0,0,1,.87.25C422.86,269.73,423.41,277.18,417.86,290.49Z" style="fill: rgb(33, 232, 112); transform-origin: 419.627px 278.68px;" id="eln8tpve6bvw" class="animable"></path><path d="M420.63,272a13.15,13.15,0,0,1-.31,2.72c-.3,1.89-.66,4.09-1.05,6.53l-1,6.53a14.15,14.15,0,0,1-.49,2.7,11.68,11.68,0,0,1,.08-2.75c.16-1.69.46-4,.87-6.57s.87-4.85,1.23-6.51A12.77,12.77,0,0,1,420.63,272Z" style="fill: rgb(38, 50, 56); transform-origin: 419.182px 281.24px;" id="el6hz7eddm4de" class="animable"></path><path d="M423.3,325.39s2.83-15.24,14.22-19a.51.51,0,0,1,.65.64C437.42,309.38,434.43,316.21,423.3,325.39Z" style="fill: rgb(33, 232, 112); transform-origin: 430.747px 315.876px;" id="el6o433x5ztmu" class="animable"></path><path d="M434.41,310.31a13,13,0,0,1-1.55,2.27l-4,5.27-4,5.28a14.91,14.91,0,0,1-1.7,2.16,12.12,12.12,0,0,1,1.36-2.39c.93-1.42,2.28-3.34,3.84-5.4s3-3.88,4.13-5.18A12.54,12.54,0,0,1,434.41,310.31Z" style="fill: rgb(38, 50, 56); transform-origin: 428.785px 317.8px;" id="elpky6ioufwj" class="animable"></path><path d="M420.22,363.63s-1.72-15.41,8.08-22.33a.52.52,0,0,1,.82.42C429.09,344.2,428.21,351.61,420.22,363.63Z" style="fill: rgb(33, 232, 112); transform-origin: 424.612px 352.417px;" id="el8xfcyuqn3dh" class="animable"></path><path d="M426.48,346a14.34,14.34,0,0,1-.83,2.62l-2.28,6.2c-.85,2.32-1.61,4.42-2.26,6.21a15.42,15.42,0,0,1-1,2.56,11.77,11.77,0,0,1,.61-2.68c.47-1.64,1.21-3.86,2.1-6.29s1.78-4.6,2.45-6.15A11.77,11.77,0,0,1,426.48,346Z" style="fill: rgb(38, 50, 56); transform-origin: 423.295px 354.795px;" id="elpelwk2vmba" class="animable"></path><path d="M428.8,402.09s-1.17-15.46,8.87-22a.51.51,0,0,1,.8.44C438.35,383,437.21,390.37,428.8,402.09Z" style="fill: rgb(33, 232, 112); transform-origin: 433.614px 391.045px;" id="el64dtv7pkxbs" class="animable"></path><path d="M435.68,384.67a13,13,0,0,1-.92,2.58c-.72,1.77-1.56,3.84-2.5,6.12s-1.77,4.36-2.48,6.13a15.74,15.74,0,0,1-1.09,2.52,11.23,11.23,0,0,1,.7-2.66c.53-1.62,1.35-3.81,2.33-6.21s1.94-4.53,2.67-6.06A12,12,0,0,1,435.68,384.67Z" style="fill: rgb(38, 50, 56); transform-origin: 432.185px 393.345px;" id="ell1ar68sg7o" class="animable"></path><path d="M411.21,277.49s-13.74-7.17-14-19.17a.51.51,0,0,1,.8-.44C400.05,259.29,405.7,264.16,411.21,277.49Z" style="fill: rgb(33, 232, 112); transform-origin: 404.21px 267.64px;" id="elrzt7n2zbrd" class="animable"></path><path d="M400.06,262.44a14.66,14.66,0,0,1,1.71,2.15c1.11,1.55,2.42,3.36,3.87,5.36l3.89,5.34a14,14,0,0,1,1.56,2.26,11.87,11.87,0,0,1-1.88-2c-1.09-1.31-2.53-3.16-4-5.26s-2.82-4-3.74-5.46A11.6,11.6,0,0,1,400.06,262.44Z" style="fill: rgb(38, 50, 56); transform-origin: 405.575px 269.995px;" id="elidh222rfdsl" class="animable"></path><path d="M426,309.27s-14.15-6.33-15.15-18.28a.51.51,0,0,1,.77-.49C413.72,291.78,419.66,296.29,426,309.27Z" style="fill: rgb(33, 232, 112); transform-origin: 418.424px 299.849px;" id="elbb9lqamem99" class="animable"></path><path d="M413.92,294.93a13.56,13.56,0,0,1,1.84,2l4.19,5.11,4.2,5.09a14.56,14.56,0,0,1,1.7,2.16,12,12,0,0,1-2-1.88c-1.17-1.24-2.71-3-4.35-5s-3.06-3.85-4.07-5.22A12.25,12.25,0,0,1,413.92,294.93Z" style="fill: rgb(38, 50, 56); transform-origin: 419.885px 302.11px;" id="el71sfqx12q6y" class="animable"></path><path d="M417.83,344.71s-9.72-12.08-5.16-23.17a.51.51,0,0,1,.91-.09C414.88,323.56,418.12,330.29,417.83,344.71Z" style="fill: rgb(33, 232, 112); transform-origin: 414.65px 332.96px;" id="elb6dt7lb6wvb" class="animable"></path><path d="M413.63,326.45a13.55,13.55,0,0,1,.71,2.66c.4,1.86.88,4.05,1.4,6.46l1.42,6.45a15.2,15.2,0,0,1,.54,2.69,10.81,10.81,0,0,1-.93-2.59c-.48-1.63-1-3.9-1.59-6.43s-1-4.83-1.24-6.5A12.45,12.45,0,0,1,413.63,326.45Z" style="fill: rgb(38, 50, 56); transform-origin: 415.665px 335.58px;" id="elpsl7wiylimo" class="animable"></path><path d="M427.45,386.42s-14-6.56-14.84-18.53a.51.51,0,0,1,.78-.48C415.49,368.73,421.36,373.34,427.45,386.42Z" style="fill: rgb(33, 232, 112); transform-origin: 420.029px 376.876px;" id="el1gvb2jav1vp" class="animable"></path><path d="M415.64,371.88a12.75,12.75,0,0,1,1.81,2.07l4.1,5.18,4.12,5.17a14,14,0,0,1,1.66,2.18,11.67,11.67,0,0,1-2-1.92c-1.14-1.25-2.66-3-4.26-5.07s-3-3.91-4-5.29A12.79,12.79,0,0,1,415.64,371.88Z" style="fill: rgb(38, 50, 56); transform-origin: 421.485px 379.18px;" id="el2wiwiprzzag" class="animable"></path><path d="M455.42,325.47s0,.12,0,.35,0,.59,0,1c-.05.93-.1,2.19-.17,3.75-.18,3.31-.43,7.92-.74,13.43h0v0c-1,5.61-3.86,11.83-7.7,17.86-2.81,4.45-5.76,8.49-8.31,12.25a88.05,88.05,0,0,0-6.23,10.3,44.05,44.05,0,0,0-2.91,7.56c-.25.93-.44,1.65-.54,2.14a4,4,0,0,1-.21.75,3.69,3.69,0,0,1,.09-.77c.07-.5.22-1.23.44-2.17a39.69,39.69,0,0,1,2.76-7.68,83,83,0,0,1,6.16-10.42c2.53-3.79,5.46-7.84,8.26-12.26,3.82-6,6.66-12.13,7.7-17.65v0c.39-5.51.71-10.11.94-13.41q.19-2.35.3-3.75c0-.4.08-.72.1-1A1.66,1.66,0,0,1,455.42,325.47Z" style="fill: rgb(38, 50, 56); transform-origin: 442.015px 360.165px;" id="elwa0i588619" class="animable"></path><path d="M447.06,360.73S453,346.41,445.53,337a.51.51,0,0,0-.9.17C444,339.6,442.74,347,447.06,360.73Z" style="fill: rgb(33, 232, 112); transform-origin: 446.63px 348.763px;" id="elsa2ddo3vof" class="animable"></path><path d="M446,342a12.25,12.25,0,0,1,.47,2.71c.21,1.68.45,4,.63,6.59s.27,4.92.27,6.62a11.65,11.65,0,0,1-.16,2.74,13.73,13.73,0,0,1-.25-2.73c-.12-1.9-.27-4.13-.44-6.59s-.33-4.7-.46-6.6A13.82,13.82,0,0,1,446,342Z" style="fill: rgb(38, 50, 56); transform-origin: 446.675px 351.33px;" id="el762lgdt2fpw" class="animable"></path><g id="elfozsl13af1"><g style="opacity: 0.3; transform-origin: 446.63px 348.763px;" class="animable"><path d="M447.06,360.73S453,346.41,445.53,337a.51.51,0,0,0-.9.17C444,339.6,442.74,347,447.06,360.73Z" id="elxgm9rh56j2p" class="animable" style="transform-origin: 446.63px 348.763px;"></path></g></g><path d="M428.64,395.23s4.77-14.75-3.45-23.49a.51.51,0,0,0-.88.24C423.84,374.42,423.22,381.86,428.64,395.23Z" style="fill: rgb(33, 232, 112); transform-origin: 427.015px 383.4px;" id="elcy83o1yqolr" class="animable"></path><path d="M426,376.68a11.69,11.69,0,0,1,.69,2.66c.35,1.66.77,4,1.17,6.52s.67,4.88.8,6.57a10.87,10.87,0,0,1,.06,2.75,14.71,14.71,0,0,1-.46-2.7c-.28-1.88-.61-4.09-1-6.54s-.7-4.65-1-6.53A14,14,0,0,1,426,376.68Z" style="fill: rgb(38, 50, 56); transform-origin: 427.39px 385.93px;" id="el1hai8t281c7" class="animable"></path><g id="el148nhfcfnmrj"><g style="opacity: 0.3; transform-origin: 427.015px 383.4px;" class="animable"><path d="M428.64,395.23s4.77-14.75-3.45-23.49a.51.51,0,0,0-.88.24C423.84,374.42,423.22,381.86,428.64,395.23Z" id="elljfbrzz6ts" class="animable" style="transform-origin: 427.015px 383.4px;"></path></g></g><path d="M454.64,343.23s12.7-8.89,11.41-20.81a.51.51,0,0,0-.85-.34C463.36,323.74,458.38,329.3,454.64,343.23Z" style="fill: rgb(33, 232, 112); transform-origin: 460.391px 332.589px;" id="el668nsovh50m" class="animable"></path><g id="elvcij9lo2dol"><g style="opacity: 0.3; transform-origin: 460.391px 332.589px;" class="animable"><path d="M454.64,343.23s12.7-8.89,11.41-20.81a.51.51,0,0,0-.85-.34C463.36,323.74,458.38,329.3,454.64,343.23Z" id="el5ohg2nulyt7" class="animable" style="transform-origin: 460.391px 332.589px;"></path></g></g><path d="M463.76,326.87a12.17,12.17,0,0,1-1.06,2.54c-.72,1.53-1.77,3.62-3,5.9s-2.41,4.3-3.33,5.73a11.65,11.65,0,0,1-1.61,2.23,14.78,14.78,0,0,1,1.26-2.44l3.17-5.8c1.17-2.17,2.24-4.13,3.15-5.81A12.35,12.35,0,0,1,463.76,326.87Z" style="fill: rgb(38, 50, 56); transform-origin: 459.26px 335.07px;" id="el0ta2sf0ilys" class="animable"></path><path d="M433.76,380.61s15.32-2.39,19.42-13.67a.51.51,0,0,0-.62-.67C450.18,367,443.26,369.74,433.76,380.61Z" style="fill: rgb(33, 232, 112); transform-origin: 443.487px 373.43px;" id="el9x9spvd28vt" class="animable"></path><g id="elal9iwtfi2if"><g style="opacity: 0.3; transform-origin: 443.487px 373.43px;" class="animable"><path d="M433.76,380.61s15.32-2.39,19.42-13.67a.51.51,0,0,0-.62-.67C450.18,367,443.26,369.74,433.76,380.61Z" id="el7jb6mjxcw7c" class="animable" style="transform-origin: 443.487px 373.43px;"></path></g></g><path d="M449.16,369.93a12.21,12.21,0,0,1-2.07,1.81c-1.32,1.06-3.19,2.48-5.3,4s-4.05,2.8-5.5,3.68a10.92,10.92,0,0,1-2.43,1.29,15.38,15.38,0,0,1,2.2-1.63l5.4-3.81,5.39-3.83A13.81,13.81,0,0,1,449.16,369.93Z" style="fill: rgb(38, 50, 56); transform-origin: 441.51px 375.32px;" id="elfm3y2cwdyxa" class="animable"></path><polygon points="419.15 408.79 414.68 438.87 442.52 438.87 438.92 408.79 419.15 408.79" style="fill: rgb(69, 90, 100); transform-origin: 428.6px 423.83px;" id="elr9wr7g8jqx" class="animable"></polygon><path d="M440,418.11a109.06,109.06,0,0,1-11.23.29,109.06,109.06,0,0,1-11.23-.29,109.06,109.06,0,0,1,11.23-.29A109.06,109.06,0,0,1,440,418.11Z" style="fill: rgb(38, 50, 56); transform-origin: 428.77px 418.11px;" id="elj0pi3927rpd" class="animable"></path><path d="M440.58,420.51c0,.16-5.19.29-11.6.29s-11.59-.13-11.59-.29,5.19-.29,11.59-.29S440.58,420.35,440.58,420.51Z" style="fill: rgb(38, 50, 56); transform-origin: 428.985px 420.51px;" id="els53rsmy8mha" class="animable"></path></g><g id="freepik--Character--inject-19" class="animable" style="transform-origin: 234.983px 325.151px;"><path d="M428.74,478.24c2.53-15.73.14-32.4-7.73-46.25s-21.39-24.62-36.93-28.13-32.86.68-44.36,11.71c-13.09-1.48-26.57-1.32-39.15,2.57S276.31,430,269.75,441.39s-7.31,26.47-.26,37.6Z" style="fill: rgb(33, 232, 112); transform-origin: 347.108px 440.82px;" id="ellgqlaweln6" class="animable"></path><path d="M377.05,402.65c0,.12-1.81.06-4.61.76l-1.09.29-1.16.41a25.06,25.06,0,0,0-2.49,1,30.82,30.82,0,0,0-5.22,3.29,32.51,32.51,0,0,0-4.42,4.33c-.56.77-1.16,1.45-1.6,2.18l-.67,1-.54,1c-1.37,2.54-1.78,4.31-1.89,4.27a6.54,6.54,0,0,1,.29-1.23c.05-.21.11-.42.18-.66l.29-.75a14.78,14.78,0,0,1,.8-1.8l.52-1c.22-.34.44-.69.66-1.06.43-.75,1-1.45,1.59-2.24a31.21,31.21,0,0,1,4.46-4.44,30,30,0,0,1,5.34-3.32,26.5,26.5,0,0,1,2.56-1l1.19-.39,1.12-.26a14.87,14.87,0,0,1,1.94-.33l.81-.1h.68A5.41,5.41,0,0,1,377.05,402.65Z" style="fill: rgb(250, 250, 250); transform-origin: 365.205px 411.882px;" id="el3cy6unesyvt" class="animable"></path><path d="M337.44,420.29a.68.68,0,0,1-.24,0l-.68.07c-.61.08-1.51.11-2.65.27a64.17,64.17,0,0,0-9.59,1.9,67.42,67.42,0,0,0-6.4,2.13,65.76,65.76,0,0,0-7,3.27,62.6,62.6,0,0,0-14.21,10.51,70,70,0,0,0-6.07,6.88,68.93,68.93,0,0,0-4.71,7.13,60.26,60.26,0,0,0-7.47,22.92c-.16,1.14-.19,2-.26,2.65,0,.28,0,.5-.07.69a.89.89,0,0,1,0,.23.82.82,0,0,1,0-.23c0-.19,0-.42,0-.7,0-.61,0-1.51.16-2.66a54.72,54.72,0,0,1,1.73-9.66,58.66,58.66,0,0,1,5.52-13.47,65.91,65.91,0,0,1,4.73-7.21,68.57,68.57,0,0,1,6.1-6.94,61.84,61.84,0,0,1,14.35-10.56,65.4,65.4,0,0,1,7.08-3.26,67.18,67.18,0,0,1,6.46-2.08,59.21,59.21,0,0,1,9.67-1.74c1.15-.13,2-.13,2.66-.17l.69,0A.87.87,0,0,1,337.44,420.29Z" style="fill: rgb(250, 250, 250); transform-origin: 307.761px 449.6px;" id="elgfof2i3mddt" class="animable"></path><path d="M382.88,408.91a3.85,3.85,0,0,1-.77,0c-.51,0-1.26-.05-2.22,0a33.69,33.69,0,0,0-8,1.33,34.65,34.65,0,0,0-10.77,5.27,32.65,32.65,0,0,0-5.29,4.72,30.46,30.46,0,0,0-4.43,6.18l-.64,1.2-.12.22-.23-.1a28.09,28.09,0,0,0-13.89-2.34,31.82,31.82,0,0,0-6.09,1.13,31.13,31.13,0,0,0-5,2A28.14,28.14,0,0,0,319,433c-1.34,1.26-2,2-2.05,2a4.76,4.76,0,0,1,.47-.58,18.49,18.49,0,0,1,1.45-1.56,26.61,26.61,0,0,1,6.38-4.59,31.2,31.2,0,0,1,5.05-2.08,31.94,31.94,0,0,1,6.18-1.19,28.35,28.35,0,0,1,14.15,2.34l-.34.12.66-1.22a30.4,30.4,0,0,1,4.5-6.28,32.63,32.63,0,0,1,5.39-4.76,34.38,34.38,0,0,1,10.95-5.24,32,32,0,0,1,8.1-1.17c1,0,1.72.06,2.23.07A3.43,3.43,0,0,1,382.88,408.91Z" style="fill: rgb(38, 50, 56); transform-origin: 349.915px 421.895px;" id="elg79464r2225" class="animable"></path><g id="elblq2grv0pa5"><g style="opacity: 0.2; transform-origin: 343.57px 420.365px;" class="animable"><path d="M320.47,431.53a27.19,27.19,0,0,1,12.71-17.08c6.29-3.5,13.57-4.89,20.76-5.2,4.42-.2,9.16.09,12.73,2.71,0,0-9.34,3.35-16.16,15.58A27.34,27.34,0,0,0,320.47,431.53Z" id="elf3hf31abdb" class="animable" style="transform-origin: 343.57px 420.365px;"></path></g></g><path d="M321.82,479a4,4,0,0,1-.18-.58c-.1-.44-.24-1-.41-1.7-.09-.38-.18-.79-.29-1.24s-.15-1-.23-1.49a31.52,31.52,0,0,1-.42-3.65c0-.68-.08-1.4-.13-2.14s0-1.52,0-2.32a47.1,47.1,0,0,1,.37-5.11A50.19,50.19,0,0,1,328.81,439l1.52-2.15c.48-.71,1.06-1.31,1.55-1.94s1-1.24,1.51-1.77l1.48-1.54c.91-1,1.89-1.78,2.68-2.52a21.65,21.65,0,0,1,2.15-1.75l1.4-1.05c.33-.23.5-.35.52-.33a3.92,3.92,0,0,1-.45.41l-1.35,1.12a27.43,27.43,0,0,0-2.08,1.82c-.77.75-1.71,1.53-2.61,2.55l-1.44,1.56c-.52.53-1,1.16-1.47,1.77s-1.05,1.24-1.52,1.94l-1.49,2.15a56.37,56.37,0,0,0-5.32,10.32A55,55,0,0,0,321,460.82a49.35,49.35,0,0,0-.41,5.06c0,.8-.08,1.56,0,2.3s.06,1.45.09,2.12a35.12,35.12,0,0,0,.34,3.64c.07.53.1,1,.19,1.49s.16.86.24,1.24c.13.7.23,1.27.32,1.71A2.81,2.81,0,0,1,321.82,479Z" style="fill: rgb(250, 250, 250); transform-origin: 330.879px 452.474px;" id="el7u129fbwer2" class="animable"></path><path d="M375.11,478.49s-.17-.11-.47-.37l-1.3-1.13c-.55-.5-1.24-1.1-2-1.87s-1.63-1.59-2.48-2.62-1.87-2.1-2.8-3.37c-.47-.63-1-1.26-1.46-1.95L363.16,465a67.81,67.81,0,0,1-5.38-10.18,84.68,84.68,0,0,1-5.46-20.14c-.38-2.64-.63-4.79-.74-6.28-.05-.7-.09-1.27-.12-1.72a2.11,2.11,0,0,1,0-.6,4.09,4.09,0,0,1,.11.59c.06.45.13,1,.22,1.71.17,1.48.48,3.62.91,6.25a90.78,90.78,0,0,0,5.57,20,70.86,70.86,0,0,0,5.3,10.12l1.43,2.13c.46.7,1,1.33,1.43,2,.92,1.27,1.88,2.36,2.73,3.39s1.72,1.86,2.42,2.65,1.38,1.41,1.91,1.93l1.23,1.2A3.11,3.11,0,0,1,375.11,478.49Z" style="fill: rgb(250, 250, 250); transform-origin: 363.274px 452.285px;" id="el20v467d5ppc" class="animable"></path><path d="M415.7,478.3a.76.76,0,0,1,0-.26v-3.6c0-2.48-.1-6.07-.56-10.48A78.11,78.11,0,0,0,412,448.74a58.6,58.6,0,0,0-8.34-17,48.72,48.72,0,0,0-6.5-7.36,42.44,42.44,0,0,0-7.38-5.39,38.57,38.57,0,0,0-14.64-4.8,34,34,0,0,0-10.42.44l-1.61.37c-.46.12-.84.24-1.16.33l-.71.2-.25.05s.07,0,.23-.1l.7-.25c.31-.1.69-.25,1.15-.38l1.61-.41a32.53,32.53,0,0,1,10.5-.62A38.46,38.46,0,0,1,390,418.57,41.81,41.81,0,0,1,397.5,424a49.25,49.25,0,0,1,6.59,7.43,58.67,58.67,0,0,1,8.37,17.17,76.3,76.3,0,0,1,3,15.32,96,96,0,0,1,.39,10.52c0,1.25-.06,2.21-.1,2.86l0,.75A.87.87,0,0,1,415.7,478.3Z" style="fill: rgb(250, 250, 250); transform-origin: 388.428px 445.973px;" id="elijzhk4pk5ng" class="animable"></path><path d="M260,226.68a5.93,5.93,0,0,1-2.84-8.09c1.13-2,3.4-3.21,4.12-5.36a7.24,7.24,0,0,0-.53-4.89,21.47,21.47,0,0,1-1.69-4.72,4.42,4.42,0,0,1,1.67-4.44c2-1.2,4.58.2,6.14,1.93a15,15,0,0,1,3.27,13.67c-.55,2.05-1.54,3.95-2.17,6a8.74,8.74,0,0,0,0,6.21" style="fill: rgb(245, 245, 245); transform-origin: 263.566px 212.861px;" id="elsx41vgmbz8l" class="animable"></path><path d="M262.32,205.07s.25.15.59.54a6.49,6.49,0,0,1,1.13,1.91,8,8,0,0,1,.52,3.25,7.37,7.37,0,0,1-1.31,3.83,26.81,26.81,0,0,0-2.37,3.11,5.83,5.83,0,0,0-.6,3,8.39,8.39,0,0,0,.79,2.79,1.89,1.89,0,0,1-.49-.65,5.55,5.55,0,0,1-.67-2.11,6,6,0,0,1,.54-3.26,22.66,22.66,0,0,1,2.38-3.2,7.19,7.19,0,0,0,1.25-3.56,8,8,0,0,0-.39-3.1A12.16,12.16,0,0,0,262.32,205.07Z" style="fill: rgb(38, 50, 56); transform-origin: 262.22px 214.285px;" id="eltg71fxax9b" class="animable"></path><path d="M265.89,204.68s.25.15.6.55a6.8,6.8,0,0,1,1.12,1.9,8,8,0,0,1,.52,3.26,7.34,7.34,0,0,1-1.31,3.82,27.69,27.69,0,0,0-2.37,3.11,5.83,5.83,0,0,0-.6,3,8.39,8.39,0,0,0,.79,2.79s-.23-.19-.49-.64a5.67,5.67,0,0,1-.67-2.12,6,6,0,0,1,.54-3.26,23.25,23.25,0,0,1,2.38-3.2,7.12,7.12,0,0,0,1.25-3.55,7.82,7.82,0,0,0-.39-3.1A12.44,12.44,0,0,0,265.89,204.68Z" style="fill: rgb(38, 50, 56); transform-origin: 265.79px 213.895px;" id="ell3t1qmrqey" class="animable"></path><path d="M256.07,182.65a3.25,3.25,0,0,0-1.58,2.45,4.92,4.92,0,0,0,.65,2.92,4.67,4.67,0,0,0,1.7,1.8,3.1,3.1,0,0,0,2.41.34,3.67,3.67,0,0,0,2.19-2.28,4.79,4.79,0,0,0-.75-4.95,3.43,3.43,0,0,0-4.72-.28" style="fill: rgb(245, 245, 245); transform-origin: 258.144px 186.054px;" id="elzc1ejflax2" class="animable"></path><path d="M268.84,229.34c0-.09.3-.36,1-.61a7.07,7.07,0,0,1,3.17-.27,8.37,8.37,0,0,1,4.38,2,8.22,8.22,0,0,1-2.62,13.9,7.12,7.12,0,0,1-3.16.42c-.75-.08-1.13-.27-1.12-.36,0-.27,1.66,0,3.85-1.08a7.93,7.93,0,0,0,3.08-2.68,7.39,7.39,0,0,0-1-9.14,7.83,7.83,0,0,0-3.59-1.94C270.46,229,268.91,229.59,268.84,229.34Z" style="fill: rgb(69, 90, 100); transform-origin: 274.512px 236.6px;" id="eltd6aqb7ad29" class="animable"></path><path d="M251.92,225.61l1.56,21.66a3.18,3.18,0,0,0,3.22,2.95L270,250a3.17,3.17,0,0,0,3.12-3.17V225.61Z" style="fill: rgb(69, 90, 100); transform-origin: 262.52px 237.915px;" id="el6vkcw7vo8xe" class="animable"></path><path d="M240.28,239.92l12.47-6.23,6.28-.47,6-.54s.67,2.24-3.64,3.7c-3.51,1.18-6.73,2.2-6.73,2.2s1,5.91-2.27,9.17a23.36,23.36,0,0,1-6.44,4.64Z" style="fill: rgb(255, 190, 157); transform-origin: 252.674px 242.535px;" id="elb7pv9i6urv" class="animable"></path><path d="M40.29,197.53l21,195.31,95.83,23L254.6,387.6S266.79,292.68,185,281.29c0,0,3.89-82.72-27.46-96.15Z" style="fill: rgb(33, 232, 112); transform-origin: 147.766px 300.49px;" id="elgp2g7exz4ko" class="animable"></path><path d="M144.31,186.54l.5.22a12.82,12.82,0,0,1,1.41.78,19.72,19.72,0,0,1,4.63,4.14c3.52,4.16,7,11.44,9.51,21s4.38,21.29,5.51,34.57a408.38,408.38,0,0,1,1.17,44l-.22-.26c2.45.36,5,.63,7.45,1.08s5,.92,7.51,1.67a76.64,76.64,0,0,1,14.82,5.43,64.52,64.52,0,0,1,17.69,12.69c.6.66,1.19,1.32,1.79,2l.89,1,.82,1,1.64,2.06c.5.72,1,1.44,1.49,2.15,1,1.4,1.84,2.93,2.74,4.38l1.19,2.26.59,1.13.53,1.15a74.59,74.59,0,0,1,5.78,18.56,80.81,80.81,0,0,1,1.09,9.1,65.53,65.53,0,0,1,0,8.75v.15l-.15,0-43.4,11-12.09,3-3.17.78c-.72.17-1.1.24-1.1.24l1.08-.31,3.16-.84,12.06-3.15,43.36-11.2-.16.19a66.28,66.28,0,0,0,0-8.68,80,80,0,0,0-1.1-9.05,73.94,73.94,0,0,0-5.77-18.43L225,328l-.59-1.12-1.19-2.24c-.9-1.44-1.7-3-2.72-4.35L219,318.16l-1.62-2.05-.82-1-.88-1-1.78-1.95a64,64,0,0,0-17.55-12.58,76.29,76.29,0,0,0-14.72-5.4c-2.47-.74-5-1.13-7.47-1.66s-5-.72-7.42-1.09l-.23,0v-.23a413.33,413.33,0,0,0-1.11-43.9c-1.1-13.27-2.87-25-5.39-34.52s-5.87-16.79-9.33-21a20.57,20.57,0,0,0-4.54-4.18,15.68,15.68,0,0,0-1.38-.81Z" style="fill: rgb(38, 50, 56); transform-origin: 188.648px 283.555px;" id="elcl57g6xps27" class="animable"></path><path d="M170.76,357.77a2,2,0,0,1,.12.54c.06.41.14.92.24,1.55.21,1.35.45,3.31.72,5.74.52,4.85,1,11.58,1.22,19s.1,14.2,0,19.08c-.07,2.38-.13,4.33-.18,5.77,0,.64-.06,1.16-.08,1.57a2,2,0,0,1-.06.55,2.15,2.15,0,0,1,0-.55c0-.42,0-.94,0-1.57,0-1.44,0-3.4,0-5.78,0-4.88.06-11.61-.14-19.05s-.64-14.16-1.07-19c-.22-2.37-.41-4.31-.55-5.74-.06-.64-.11-1.15-.14-1.57A2.08,2.08,0,0,1,170.76,357.77Z" style="fill: rgb(38, 50, 56); transform-origin: 171.972px 384.67px;" id="elc30tdppx5nt" class="animable"></path><path d="M185.66,280.54a26.69,26.69,0,0,1-2.88,1.37c-1.78.81-4.22,2-6.86,3.39s-4.95,2.82-6.61,3.86a25.7,25.7,0,0,1-2.73,1.64,16.34,16.34,0,0,1,2.52-1.95,70.25,70.25,0,0,1,6.58-4,67.9,67.9,0,0,1,7-3.28A15.22,15.22,0,0,1,185.66,280.54Z" style="fill: rgb(38, 50, 56); transform-origin: 176.12px 285.67px;" id="ela2xpdg14q5b" class="animable"></path><path d="M95.36,243.62a2.27,2.27,0,0,1-.21-.58c-.13-.44-.3-1-.5-1.69-.45-1.54-1.06-3.66-1.8-6.25a105.56,105.56,0,0,0-7.73-19.9A49,49,0,0,0,71.53,199a36.62,36.62,0,0,0-5.5-3.39c-1.37-.68-2.16-1-2.14-1a3.69,3.69,0,0,1,.59.19c.37.16.94.34,1.63.68a32,32,0,0,1,5.64,3.27,41.64,41.64,0,0,1,7.12,6.53A54,54,0,0,1,85.58,215,97.58,97.58,0,0,1,93.2,235c.73,2.65,1.28,4.8,1.64,6.29.17.71.31,1.28.41,1.72A2.59,2.59,0,0,1,95.36,243.62Z" style="fill: rgb(38, 50, 56); transform-origin: 79.6248px 219.115px;" id="elfst4pylcmjm" class="animable"></path><path d="M103.62,194.78l4.09,47.39,23.74-1.89c.15-2.77,0-13.5,0-13.5s9.87-1.53,10-11.41c.06-4.79-.63-14.7-1.35-23.63A18.28,18.28,0,0,0,120.77,175h0A18.29,18.29,0,0,0,103.62,194.78Z" style="fill: rgb(255, 190, 157); transform-origin: 122.505px 208.568px;" id="elwglyycted9" class="animable"></path><path d="M131.41,226.64A22.92,22.92,0,0,1,118.54,223s3,7.11,12.9,6.22Z" style="fill: rgb(235, 153, 110); transform-origin: 124.99px 226.149px;" id="elsarity0n38f" class="animable"></path><path d="M137.63,198.3a1.4,1.4,0,0,1-1.36,1.42,1.33,1.33,0,0,1-1.45-1.27,1.41,1.41,0,0,1,1.36-1.42A1.35,1.35,0,0,1,137.63,198.3Z" style="fill: rgb(38, 50, 56); transform-origin: 136.225px 198.376px;" id="eltrgcklec8wc" class="animable"></path><path d="M137.94,196.72c-.18.18-1.24-.61-2.76-.61s-2.63.77-2.8.58.1-.41.59-.77a3.88,3.88,0,0,1,2.23-.69,3.8,3.8,0,0,1,2.2.71C137.87,196.3,138,196.63,137.94,196.72Z" style="fill: rgb(38, 50, 56); transform-origin: 135.141px 195.988px;" id="elrnhz4fqjh8m" class="animable"></path><path d="M122.77,198.66a1.41,1.41,0,0,1-1.36,1.42,1.34,1.34,0,0,1-1.45-1.27,1.4,1.4,0,0,1,1.35-1.42A1.34,1.34,0,0,1,122.77,198.66Z" style="fill: rgb(38, 50, 56); transform-origin: 121.365px 198.735px;" id="elww8w1oc2yup" class="animable"></path><path d="M123,197c-.17.18-1.24-.61-2.76-.6s-2.63.76-2.79.57.09-.41.58-.76a3.77,3.77,0,0,1,2.24-.69,3.63,3.63,0,0,1,2.19.71C123,196.58,123.11,196.92,123,197Z" style="fill: rgb(38, 50, 56); transform-origin: 120.22px 196.273px;" id="elend4x2byvqe" class="animable"></path><path d="M128.53,208.25a10.26,10.26,0,0,1,2.46-.44c.39,0,.76-.12.82-.38a2,2,0,0,0-.26-1.15l-1.14-2.95c-1.59-4.2-2.74-7.66-2.57-7.72s1.59,3.29,3.18,7.49c.39,1,.75,2,1.1,3a2.21,2.21,0,0,1,.2,1.52,1,1,0,0,1-.63.57,2.87,2.87,0,0,1-.66.09A9.72,9.72,0,0,1,128.53,208.25Z" style="fill: rgb(38, 50, 56); transform-origin: 130.099px 201.978px;" id="elgaxt4urisb" class="animable"></path><path d="M124.06,209.3c.25,0,.25,1.64,1.66,2.8s3.17,1,3.18,1.22-.39.32-1.13.34a4.08,4.08,0,0,1-2.65-.92,3.6,3.6,0,0,1-1.29-2.35C123.77,209.7,124,209.29,124.06,209.3Z" style="fill: rgb(38, 50, 56); transform-origin: 126.36px 211.48px;" id="elr265jmaohnd" class="animable"></path><path d="M123.41,191.05c-.15.41-1.66.22-3.44.43s-3.22.7-3.46.33c-.1-.17.15-.56.73-1a5.73,5.73,0,0,1,2.56-.9,5.79,5.79,0,0,1,2.7.32C123.15,190.53,123.48,190.86,123.41,191.05Z" style="fill: rgb(38, 50, 56); transform-origin: 119.954px 190.907px;" id="el08c5xddmr1tw" class="animable"></path><path d="M137.38,192.32c-.27.35-1.31,0-2.57,0s-2.32.24-2.57-.13c-.1-.17.06-.52.53-.84a3.69,3.69,0,0,1,4.14.13C137.35,191.8,137.5,192.16,137.38,192.32Z" style="fill: rgb(38, 50, 56); transform-origin: 134.816px 191.627px;" id="eltkm7zvj9e7" class="animable"></path><path d="M114.35,184l-.06,0a7.82,7.82,0,0,0-2.89,5l0,.2c-.39,2.81-.32,5.68-.73,8.49a12.81,12.81,0,0,1-3.47,7.61c-.86.8-2.37,1.35-3.07.41a2.38,2.38,0,0,1-.35-1.29c-.53-6.8-2.39-12.83-2.38-19.94a6,6,0,0,1,2.49-4.88c1.49-1.07,3.31-2.18,5-1.39s3.8,3.88,5.09,5.19" style="fill: rgb(38, 50, 56); transform-origin: 107.875px 192.073px;" id="eljg23d4xny88" class="animable"></path><path d="M107,199.25c-.16-.08-6.78-2-6.57,4.74s7,5.14,7,4.95S107,199.25,107,199.25Z" style="fill: rgb(255, 190, 157); transform-origin: 103.928px 204.089px;" id="elfsp746sub5k" class="animable"></path><path d="M105.2,206.45s-.12.08-.32.18a1.13,1.13,0,0,1-.87.05,2.9,2.9,0,0,1-1.43-2.57,3.93,3.93,0,0,1,.27-1.7,1.37,1.37,0,0,1,.86-.93.61.61,0,0,1,.7.3c.1.19.06.33.1.34s.14-.12.07-.4a.69.69,0,0,0-.28-.41.83.83,0,0,0-.65-.15,1.66,1.66,0,0,0-1.2,1.08,3.92,3.92,0,0,0-.34,1.9,3,3,0,0,0,1.8,2.86,1.23,1.23,0,0,0,1.07-.22C105.19,206.61,105.22,206.46,105.2,206.45Z" style="fill: rgb(235, 153, 110); transform-origin: 103.653px 204.093px;" id="el66zzxkn7uvh" class="animable"></path><path d="M108.61,179.27c-1.67-2.7,2.89-6.58,6.22-7.63s7.72.58,11,1.68c2.09.69,4.17,1.66,6.38,1.57a15.06,15.06,0,0,0,4.28-1.09,10.77,10.77,0,0,1,4.31-.86,4.1,4.1,0,0,1,3.56,2.26,2.54,2.54,0,0,1-1.71,3.44,3.32,3.32,0,1,1,.89,6.15c1-.73,2.43.47,2.31,1.67a3.52,3.52,0,0,1-2.31,2.56c-2.82,1.23-6.1.84-9-.14s-5.62-2.51-8.51-3.56-7.72-2.95-10.62-1.92c-2.14.75-3.62,3.32-4.83,2.75a4.14,4.14,0,0,1-2.14-3,11.88,11.88,0,0,1,.14-3.85" style="fill: rgb(38, 50, 56); transform-origin: 127.913px 180.546px;" id="elosw8yedlumh" class="animable"></path><path d="M143.51,178.46c-.06,0-.35.5-1.08,1.28a9.19,9.19,0,0,1-3.75,2.42,8.53,8.53,0,0,1-6.44-.26c-2.29-1-4.26-3.09-6.52-5a14,14,0,0,0-7.59-3.64,7.79,7.79,0,0,0-6.45,2.23,5.87,5.87,0,0,0-1.53,4.37,4.61,4.61,0,0,0,.29,1.24,1.31,1.31,0,0,0,.22.39,10.87,10.87,0,0,1-.25-1.65,5.75,5.75,0,0,1,1.61-4,7.36,7.36,0,0,1,6-1.95,13.67,13.67,0,0,1,7.22,3.54c2.22,1.9,4.24,4,6.7,5.08a9.21,9.21,0,0,0,10.64-2.54,5.86,5.86,0,0,0,.7-1.06C143.47,178.61,143.53,178.47,143.51,178.46Z" style="fill: rgb(69, 90, 100); transform-origin: 126.825px 178.223px;" id="eldsf3ffw3ge8" class="animable"></path><path d="M105.23,199s.3-.18.55-.72a4.55,4.55,0,0,0,.34-2.45c-.15-2.17-2.08-4.51-2.32-7.51a6.77,6.77,0,0,1,.75-4,5.14,5.14,0,0,1,2.51-2.17,4.41,4.41,0,0,1,2.25-.3c.54.08.83.21.86.15s-.24-.23-.81-.41a4.19,4.19,0,0,0-2.47.12,5.43,5.43,0,0,0-2.87,2.3,7,7,0,0,0-.88,4.4,12.23,12.23,0,0,0,1.3,4.26,12.59,12.59,0,0,1,1.21,3.26A5,5,0,0,1,105.23,199Z" style="fill: rgb(69, 90, 100); transform-origin: 106.627px 190.229px;" id="el2pecbk5upqd" class="animable"></path><polygon points="238.05 382.78 241.33 438.4 245.85 438.4 247.87 382.78 238.05 382.78" style="fill: rgb(38, 50, 56); transform-origin: 242.96px 410.59px;" id="eldbhfigkghf" class="animable"></polygon><polygon points="156.25 409.69 159.52 465.31 164.04 465.31 166.06 409.69 156.25 409.69" style="fill: rgb(38, 50, 56); transform-origin: 161.155px 437.5px;" id="el1s5gf8ab3sk" class="animable"></polygon><polygon points="62.64 391.43 65.92 438.4 70.44 438.4 72.46 391.43 62.64 391.43" style="fill: rgb(38, 50, 56); transform-origin: 67.55px 414.915px;" id="elf7szzozuv4f" class="animable"></polygon><path d="M106.61,233.76s-17,10.58-19.17,18.74c0,0-3.31,6.61,0,17.85s50.19,61.27,50.19,61.27l40-14.91-17.64-31.32s-4.88-46.18-6.61-48.76c-5.6-8.38-25.9-5-25.9-5Z" style="fill: rgb(69, 90, 100); transform-origin: 131.799px 281.288px;" id="el2v4mu5azru4" class="animable"></path><path d="M149.5,233.26c.92.56,37.39,14.49,37.39,14.49l53.05-8.54,6.91,14.7-43.69,17.41A34.85,34.85,0,0,1,182.67,273l-24.87-5.51Z" style="fill: rgb(69, 90, 100); transform-origin: 198.175px 253.541px;" id="elflw0choz4zf" class="animable"></path><path d="M160,286a10.91,10.91,0,0,1-.15-1.53c-.05-1-.17-2.42-.33-4.18-.32-3.52-1-8.35-1.89-13.68s-1.52-10.2-1.75-13.74c-.12-1.77-.19-3.2-.19-4.19a9.27,9.27,0,0,1,0-1.54,8.31,8.31,0,0,1,.16,1.53c.06,1,.19,2.41.35,4.17.33,3.52,1,8.35,1.9,13.69s1.52,10.19,1.75,13.73c.11,1.77.17,3.21.16,4.2A7.44,7.44,0,0,1,160,286Z" style="fill: rgb(38, 50, 56); transform-origin: 157.852px 266.57px;" id="ely97epw0h0mm" class="animable"></path><path d="M160,286a28.83,28.83,0,0,1-3.22.94c-2,.56-4.73,1.41-7.68,2.54s-5.54,2.35-7.4,3.27a27.71,27.71,0,0,1-3,1.47,3,3,0,0,1,.73-.54c.49-.32,1.21-.75,2.12-1.25a58.21,58.21,0,0,1,7.38-3.43,59.38,59.38,0,0,1,7.77-2.41c1-.24,1.84-.41,2.42-.5A2.92,2.92,0,0,1,160,286Z" style="fill: rgb(38, 50, 56); transform-origin: 149.35px 290.108px;" id="elhv9qv3razq" class="animable"></path><path d="M160.72,287.09a59.65,59.65,0,0,0-7.3,4,58.68,58.68,0,0,0-6.33,5.4,8.71,8.71,0,0,1,1.52-1.94,27.31,27.31,0,0,1,4.51-3.89,27.7,27.7,0,0,1,5.24-2.82A8.55,8.55,0,0,1,160.72,287.09Z" style="fill: rgb(38, 50, 56); transform-origin: 153.905px 291.79px;" id="eljeuzjsfdgt" class="animable"></path><path d="M106.05,237c-.12-2.24-.25-4.48-.37-6.73a1.63,1.63,0,0,1,.24-1.21c.46-.52,1.3-.28,1.94,0a25.32,25.32,0,0,0,18.14,0,23.62,23.62,0,0,1,4.07-1.41,4.88,4.88,0,0,1,4.09.84c1.47,1.27,1.56,2.23,1.59,4.17.06,3.41,0,8.47-2.44,10.86-1.65,1.62-4,2.21-6.3,2.72-5.16,1.19-10.51,2.38-15.69,1.31a9.81,9.81,0,0,1-6-3.33c-1.91-2.55,0-5.6.66-8.71" style="fill: rgb(69, 90, 100); transform-origin: 120.128px 237.739px;" id="el58v515l0m5g" class="animable"></path><path d="M135.76,230.64a2.28,2.28,0,0,1,.08.68c0,.52,0,1.16.06,1.94h0a6.75,6.75,0,0,1-.82,2.71,10,10,0,0,1-2.33,2.82,15.33,15.33,0,0,1-3.62,2.33,19.64,19.64,0,0,1-4.58,1.35,31.78,31.78,0,0,1-12.73-.37,11,11,0,0,1-3.58-1.49,3.63,3.63,0,0,1-.79-.71c-.14-.2-.21-.31-.19-.32a6.75,6.75,0,0,0,1.09.86,12,12,0,0,0,3.56,1.3,33.62,33.62,0,0,0,12.55.22,20,20,0,0,0,4.47-1.3,16,16,0,0,0,3.53-2.21,8.21,8.21,0,0,0,3.17-5.22v0c0-.78.05-1.42.06-1.94A3.28,3.28,0,0,1,135.76,230.64Z" style="fill: rgb(38, 50, 56); transform-origin: 121.578px 236.791px;" id="elcjs0dapo02h" class="animable"></path><path d="M110.08,241a3.74,3.74,0,0,1-1-1.41,10.19,10.19,0,0,1-1-4,10.3,10.3,0,0,1,.62-4.08,3.71,3.71,0,0,1,.81-1.49,13.46,13.46,0,0,0,.52,11Z" style="fill: rgb(38, 50, 56); transform-origin: 109.073px 235.52px;" id="eluto5rnwylsk" class="animable"></path><path d="M117,242.13a4.44,4.44,0,0,1-1-1.44,11.12,11.12,0,0,1-.81-8.39,4.44,4.44,0,0,1,.75-1.61,18.44,18.44,0,0,0-.65,5.84A18.17,18.17,0,0,0,117,242.13Z" style="fill: rgb(38, 50, 56); transform-origin: 115.859px 236.41px;" id="eln1deqrxoc68" class="animable"></path><path d="M123.92,241.41a17.43,17.43,0,0,1-2.2-10.83c.16,0,.11,2.51.73,5.49S124.07,241.35,123.92,241.41Z" style="fill: rgb(38, 50, 56); transform-origin: 122.763px 235.995px;" id="el78giz9eqkca" class="animable"></path><path d="M131.29,239.1a12,12,0,0,1-.14-1.7,10.73,10.73,0,0,0-3.63-7c-.78-.68-1.34-1-1.3-1.09a3.8,3.8,0,0,1,1.53.8,9.46,9.46,0,0,1,3.77,7.26A3.92,3.92,0,0,1,131.29,239.1Z" style="fill: rgb(38, 50, 56); transform-origin: 128.877px 234.205px;" id="el6qkewzxll7o" class="animable"></path><path d="M98.62,242.77a1.16,1.16,0,1,0,.07,0" style="fill: rgb(224, 224, 224); transform-origin: 98.655px 243.93px;" id="eln0fgos5d2t" class="animable"></path><path d="M106.1,284.82a1.1,1.1,0,1,0,.07-.05" style="fill: rgb(224, 224, 224); transform-origin: 106.774px 285.689px;" id="elkyoyz64rcni" class="animable"></path><path d="M123.14,252.87a1.09,1.09,0,1,0,.07-.05" style="fill: rgb(224, 224, 224); transform-origin: 123.808px 253.731px;" id="el01cu0xeak0o8" class="animable"></path><path d="M150.56,254.91a1.16,1.16,0,1,0,.07,0" style="fill: rgb(224, 224, 224); transform-origin: 150.595px 256.07px;" id="els5r4pe97aa" class="animable"></path><path d="M148.86,238.25a1.13,1.13,0,1,0,.08-.05" style="fill: rgb(224, 224, 224); transform-origin: 149.498px 239.182px;" id="elz4w6dbgx5or" class="animable"></path><path d="M164.82,245.31a1.16,1.16,0,1,0,.07,0" style="fill: rgb(224, 224, 224); transform-origin: 164.855px 246.47px;" id="elm13g851wr8a" class="animable"></path><path d="M191.89,265.63a1.1,1.1,0,1,0,.07-.05" style="fill: rgb(224, 224, 224); transform-origin: 192.564px 266.5px;" id="elniky8372ung" class="animable"></path><path d="M197.5,251.48a1.09,1.09,0,1,0,.07,0" style="fill: rgb(224, 224, 224); transform-origin: 197.535px 252.57px;" id="el44djwzrfffa" class="animable"></path><path d="M221.29,249a1.1,1.1,0,1,0,.07,0" style="fill: rgb(224, 224, 224); transform-origin: 221.325px 250.1px;" id="elo0ddhmevkor" class="animable"></path><path d="M236.52,251.14a1.1,1.1,0,1,0,.07,0" style="fill: rgb(224, 224, 224); transform-origin: 236.555px 252.24px;" id="el1eqxxfp79np" class="animable"></path><path d="M210.68,261.49a1.09,1.09,0,1,0,.07-.05" style="fill: rgb(224, 224, 224); transform-origin: 211.348px 262.351px;" id="elbr0d467z3zf" class="animable"></path><path d="M178.37,257a1.1,1.1,0,1,0,.07-.05" style="fill: rgb(224, 224, 224); transform-origin: 179.044px 257.87px;" id="elgdnccavc72" class="animable"></path><path d="M163.73,260.4a1.09,1.09,0,1,0,.07,0" style="fill: rgb(224, 224, 224); transform-origin: 163.765px 261.49px;" id="ellmesz2um5mb" class="animable"></path><path d="M151,275.73a1.09,1.09,0,1,0,.07-.05" style="fill: rgb(224, 224, 224); transform-origin: 151.668px 276.591px;" id="elwuxvjhyh8yc" class="animable"></path><path d="M141.87,269.1a1.09,1.09,0,1,0,.07-.05" style="fill: rgb(224, 224, 224); transform-origin: 142.538px 269.961px;" id="elgue4dxazeyh" class="animable"></path><path d="M138.46,287.12a1.09,1.09,0,1,0,.07-.05" style="fill: rgb(224, 224, 224); transform-origin: 139.128px 287.981px;" id="el4dbdnkbd7xu" class="animable"></path><path d="M134.46,242.83a1.09,1.09,0,1,0,.07-.05" style="fill: rgb(224, 224, 224); transform-origin: 135.128px 243.691px;" id="el5hodeul18aw" class="animable"></path><path d="M123.25,283.73a1.09,1.09,0,1,0,.07-.05" style="fill: rgb(224, 224, 224); transform-origin: 123.918px 284.591px;" id="elprzms46pxxa" class="animable"></path><path d="M115.93,271.26a1.16,1.16,0,1,0,.07,0" style="fill: rgb(224, 224, 224); transform-origin: 115.965px 272.42px;" id="elmmob9sp6h5f" class="animable"></path><path d="M149.18,306.31a.73.73,0,0,1,.09.22c0,.18.11.4.19.66.16.58.39,1.44.63,2.56a33.07,33.07,0,0,1,.62,4.13,19.79,19.79,0,0,1-.28,5.54,13.08,13.08,0,0,1-1,3.09,9.16,9.16,0,0,1-2,2.91,5.91,5.91,0,0,1-3.38,1.74,5.44,5.44,0,0,1-3.85-1.18,11,11,0,0,1-2.76-3.19,23.9,23.9,0,0,1-1.88-4,44.08,44.08,0,0,1-2.06-8.9,264.09,264.09,0,0,1-2.42-31.87c-.06-4.09,0-7.4,0-9.69,0-1.14.07-2,.1-2.63,0-.27,0-.5,0-.68a1.45,1.45,0,0,1,0-.23.72.72,0,0,1,0,.23c0,.19,0,.41,0,.69,0,.64,0,1.52,0,2.63,0,2.28,0,5.59.11,9.67a292.65,292.65,0,0,0,2.57,31.8,43.65,43.65,0,0,0,2,8.8,23.32,23.32,0,0,0,1.83,3.87,10.53,10.53,0,0,0,2.62,3.06A4.91,4.91,0,0,0,144,326.7a5.45,5.45,0,0,0,3.13-1.59,8.78,8.78,0,0,0,1.93-2.77,13.06,13.06,0,0,0,1-3,19.62,19.62,0,0,0,.35-5.44,35.14,35.14,0,0,0-.53-4.11c-.21-1.12-.4-2-.53-2.57-.06-.27-.1-.49-.14-.67S149.18,306.32,149.18,306.31Z" style="fill: rgb(224, 224, 224); transform-origin: 140.922px 295.984px;" id="elzwxlarcpxwd" class="animable"></path><path d="M313.71,414.7l36.37,11.73L371.65,384h0a3.26,3.26,0,0,0-4.7-.33L345.6,402.94l-21.1-6.36Z" style="fill: rgb(224, 224, 224); transform-origin: 342.68px 404.626px;" id="eltgeb4hr6i1" class="animable"></path><path d="M237,339.6l7.59,29.66L289.49,368a2.25,2.25,0,0,0,2.15-2.71h0a2.25,2.25,0,0,0-1.46-1.67l-27.1-9.54-4.47-21.57Z" style="fill: rgb(224, 224, 224); transform-origin: 264.344px 350.885px;" id="elsth837fivq" class="animable"></path><path d="M177.58,316.71s24.41-38.26,34.79-52.44c8.55-11.68,33-11.94,36.58,6.56,2.7,13.79,19.89,74.41,19.89,74.41l-33,3.89-11.08-39.21s-19.8,41.72-26.55,46.45S156,324.75,156,324.75Z" style="fill: rgb(38, 50, 56); transform-origin: 212.42px 306.451px;" id="elyfdpmc56fc" class="animable"></path><path d="M332.81,395.54l-82.75-37.91L161,322.92l-27,8.7s13.32,32.89,17.23,37.64,34.72,8,34.72,8l53.8,11,83.19,33Z" style="fill: rgb(38, 50, 56); transform-origin: 233.405px 372.09px;" id="elaikmuzv8ts8" class="animable"></path><path d="M259.12,361.78a4.2,4.2,0,0,1-.81-.26l-2.29-.87-8.39-3.25L220,346.59l-27.69-10.7-8.41-3.19-2.29-.88a6.38,6.38,0,0,1-.78-.34,4.06,4.06,0,0,1,.82.24l2.32.79c2,.69,4.9,1.73,8.47,3,7.13,2.61,16.94,6.34,27.74,10.56s20.55,8.1,27.6,10.95l8.33,3.4,2.25,1A6.08,6.08,0,0,1,259.12,361.78Z" style="fill: rgb(69, 90, 100); transform-origin: 219.975px 346.63px;" id="elm8o5seg1mrb" class="animable"></path><path d="M228.39,322.92a9.41,9.41,0,0,1-.52-1.6c-.29-1-.69-2.55-1.16-4.42-1-3.74-2.23-8.92-3.59-14.65s-2.56-10.93-3.39-14.7c-.41-1.88-.73-3.41-.94-4.47a7.56,7.56,0,0,1-.24-1.67s.17.57.44,1.62l1.1,4.44c.93,3.83,2.17,9,3.54,14.66s2.54,10.84,3.44,14.68c.4,1.82.74,3.32,1,4.46A12.71,12.71,0,0,1,228.39,322.92Z" style="fill: rgb(69, 90, 100); transform-origin: 223.47px 302.165px;" id="el6l695cl0m3j" class="animable"></path><path d="M223.44,300.52a7.07,7.07,0,0,1-2-1.1,25.77,25.77,0,0,1-7.42-7.81,7.32,7.32,0,0,1-1-2,62.89,62.89,0,0,0,4.68,5.95A63.94,63.94,0,0,0,223.44,300.52Z" style="fill: rgb(69, 90, 100); transform-origin: 218.23px 295.065px;" id="eltxq6ebnq79h" class="animable"></path><path d="M104,203.54a3.87,3.87,0,0,0-2.87,1.83,4.16,4.16,0,0,0-.29,3.51c.24.64.8,1.29,1.48,1.19a1.25,1.25,0,0,0,.89-.71,3,3,0,0,0,.24-1.16,1.21,1.21,0,0,1,.17-.68,1.6,1.6,0,0,1,.49-.36,2.14,2.14,0,0,0,1-1.85,2.11,2.11,0,0,0-1.1-1.77" style="fill: rgb(224, 224, 224); transform-origin: 102.846px 206.81px;" id="elkp0tpbecyc" class="animable"></path><path d="M136.78,224.65a2.75,2.75,0,0,1,.09.29c.06.22.13.49.23.84.2.78.47,1.88.83,3.26l1.27,5.17c.49,2,1.08,4.31,1.59,6.88a35.67,35.67,0,0,1,.79,8.53,18.9,18.9,0,0,1-2.73,9.43,12.15,12.15,0,0,1-3.84,3.74,13.55,13.55,0,0,1-5.32,1.76,18.79,18.79,0,0,1-5.78-.32,23.09,23.09,0,0,1-5.6-2,18.81,18.81,0,0,1-8.35-8,41.39,41.39,0,0,1-3.42-10.32c-1.49-6.75-2.58-12.88-3.37-18.05s-1.3-9.37-1.61-12.27c-.15-1.45-.26-2.58-.32-3.35,0-.36,0-.65-.06-.87a1,1,0,0,1,0-.3,1.19,1.19,0,0,1,.06.29c0,.23.07.51.12.87.1.8.24,1.92.41,3.34.38,2.89.93,7.08,1.77,12.23s2,11.27,3.48,18a40.65,40.65,0,0,0,3.4,10.18,18.37,18.37,0,0,0,8.14,7.83,22.58,22.58,0,0,0,5.47,2,18,18,0,0,0,5.61.32,13.1,13.1,0,0,0,5.12-1.67,11.76,11.76,0,0,0,3.7-3.59,18.51,18.51,0,0,0,2.7-9.18,36.34,36.34,0,0,0-.72-8.44c-.48-2.56-1.05-4.86-1.51-6.88l-1.19-5.19c-.31-1.4-.56-2.5-.73-3.28-.08-.36-.14-.64-.18-.86A.94.94,0,0,1,136.78,224.65Z" style="fill: rgb(224, 224, 224); transform-origin: 121.381px 236.856px;" id="elhf2duibhkaj" class="animable"></path><path d="M157.16,415.86c.83-22.06,1.85-47.6-4-68.86-3.19-11.57-7.75-23.44-16.94-31-12.4-10.2-32-12.05-48-11-1.17-24.48-4-46.81-12.56-69.73-3.19-8.56-7-17.07-12.81-24s-13.58-13.17-22.57-13.67l21,195.28Z" style="fill: rgb(33, 232, 112); transform-origin: 99.0409px 306.73px;" id="elqr5cxh0e59" class="animable"></path><path d="M173.23,411.2c.61-22.11-1.06-56.11-6.93-77.36-3.2-11.57-7.76-23.44-16.94-31-12.41-10.21-32-12.06-48-11-1.16-24.48-4-46.81-12.55-69.73-3.19-8.56-7-17.06-12.82-24s-26.74,0-35.73-.53l34.42,182.2,82.45,36.13Z" style="fill: rgb(33, 232, 112); transform-origin: 106.804px 305.458px;" id="el83x9wss18jt" class="animable"></path><g id="el16wwua35tj6"><g style="opacity: 0.4; transform-origin: 99.0409px 306.73px;" class="animable"><path d="M157.16,415.86c.83-22.06,1.85-47.6-4-68.86-3.19-11.57-7.75-23.44-16.94-31-12.4-10.2-32-12.05-48-11-1.17-24.48-4-46.81-12.56-69.73-3.19-8.56-7-17.07-12.81-24s-13.58-13.17-22.57-13.67l21,195.28Z" id="elstw7x1w03n9" class="animable" style="transform-origin: 99.0409px 306.73px;"></path></g></g><path d="M89.78,247.75s-24.16,26-29.57,50a21.29,21.29,0,0,0,9.95,23h0A21.3,21.3,0,0,0,87,322.89L132.4,309.7l-1-16.28-44,2.7,19.44-25.92,7.78-9-19-19Z" style="fill: rgb(69, 90, 100); transform-origin: 96.0462px 282.97px;" id="el6zc56eydozi" class="animable"></path><path d="M111.8,315.68a1.47,1.47,0,0,1,.36-.14l1.09-.35,4.16-1.27,14.93-4.43-.16.23c-.32-4.84-.68-10.37-1.07-16.29l.23.24c-2.47.12-5.17.32-7.85.5l-32.23,2.19-9.77.61-2.66.14-.69,0H77.9a.68.68,0,0,1,.24-.05l.69-.07,2.65-.24,9.76-.78c8.24-.63,19.63-1.48,32.21-2.34,2.72-.18,5.32-.38,7.94-.49h.21l0,.25c.36,5.92.7,11.45,1,16.29v.18l-.17,0-15,4.26-4.19,1.15-1.11.28A1.41,1.41,0,0,1,111.8,315.68Z" style="fill: rgb(38, 50, 56); transform-origin: 105.25px 304.41px;" id="elxfe8nfg9gta" class="animable"></path><path d="M88.18,296.61a32.67,32.67,0,0,0-5.82-3.47,33.23,33.23,0,0,0-6.57-1.68,5.79,5.79,0,0,1,2,0,17.31,17.31,0,0,1,4.75,1.21,17,17,0,0,1,4.2,2.51A5.59,5.59,0,0,1,88.18,296.61Z" style="fill: rgb(38, 50, 56); transform-origin: 81.985px 293.991px;" id="elrxbuxtbmd3" class="animable"></path><path d="M96.32,284.2a2,2,0,0,1,.32-.45l1-1.24c.85-1.07,2.09-2.63,3.54-4.6a73.76,73.76,0,0,0,4.74-7.17,26.49,26.49,0,0,0,2.12-4.56,12.46,12.46,0,0,0,.56-5.29,14.48,14.48,0,0,0-4.56-9.07,15.19,15.19,0,0,0-7.55-3.65,17.47,17.47,0,0,0-5.74,0c-1.34.23-2.07.47-2.08.42a1.9,1.9,0,0,1,.51-.21,14.12,14.12,0,0,1,1.54-.41,16.63,16.63,0,0,1,5.83-.12,15.34,15.34,0,0,1,7.81,3.67,14.73,14.73,0,0,1,4.75,9.37,12.8,12.8,0,0,1-.58,5.5,26.84,26.84,0,0,1-2.19,4.64,67.94,67.94,0,0,1-4.87,7.15c-1.49,1.95-2.77,3.47-3.67,4.51-.45.52-.81.91-1.06,1.18A2.54,2.54,0,0,1,96.32,284.2Z" style="fill: rgb(38, 50, 56); transform-origin: 98.9306px 265.924px;" id="ell5prrpg7lf" class="animable"></path><path d="M140.68,311c2.07-3.79,10.51-18.72,12.7-22.6a1,1,0,0,1,1.42-.34l9.83,6.46a1,1,0,0,1,.34,1.3L153.29,318.1a1,1,0,0,1-1.38.4l-10.84-6.11A1,1,0,0,1,140.68,311Z" style="fill: rgb(38, 50, 56); transform-origin: 152.812px 303.263px;" id="eluy5bw40s0o7" class="animable"></path><path d="M85.25,267.09a1.09,1.09,0,1,0,.07,0" style="fill: rgb(224, 224, 224); transform-origin: 85.285px 268.18px;" id="el4yfd3djwosd" class="animable"></path><path d="M69.94,298.62a1.09,1.09,0,1,0,.07-.05" style="fill: rgb(224, 224, 224); transform-origin: 70.6081px 299.481px;" id="elhzu3glefccc" class="animable"></path><path d="M99.41,313.12a1.09,1.09,0,1,0,.07-.05" style="fill: rgb(224, 224, 224); transform-origin: 100.078px 313.981px;" id="eln4ga7on5fc9" class="animable"></path><path d="M113.67,301.08a1.09,1.09,0,1,0,.07-.05" style="fill: rgb(224, 224, 224); transform-origin: 114.338px 301.941px;" id="elqibkft42ss" class="animable"></path><path d="M84.84,286a1.09,1.09,0,1,0,.07-.05" style="fill: rgb(224, 224, 224); transform-origin: 85.508px 286.861px;" id="elufrlv3sidgp" class="animable"></path><path d="M102.1,261.43a1.16,1.16,0,1,0,.07,0" style="fill: rgb(224, 224, 224); transform-origin: 102.135px 262.59px;" id="elaelr7dnhf6g" class="animable"></path><path d="M89.06,302.17a1.09,1.09,0,1,0,.07-.05" style="fill: rgb(224, 224, 224); transform-origin: 89.728px 303.031px;" id="elejzh474fo7m" class="animable"></path><path d="M69.43,281.41a1.16,1.16,0,1,0,.07,0" style="fill: rgb(224, 224, 224); transform-origin: 69.465px 282.57px;" id="elutbzc24pzxk" class="animable"></path><path d="M75.79,317.43a1.09,1.09,0,1,0,.07-.05" style="fill: rgb(224, 224, 224); transform-origin: 76.4581px 318.291px;" id="elbhdnu0ipnxh" class="animable"></path><path d="M157.63,294a1.11,1.11,0,1,1-.12,0" style="fill: rgb(224, 224, 224); transform-origin: 157.57px 295.109px;" id="el1ew338696i6h" class="animable"></path><polygon points="131.87 294.84 149.76 294.84 160.41 304.55 154.37 317.43 142.42 307.9 132.61 307.97 131.87 294.84" style="fill: rgb(255, 190, 157); transform-origin: 146.14px 306.135px;" id="elvc0srl75s3" class="animable"></polygon><path d="M160.4,304.55l.71,3.7a2.8,2.8,0,0,1-1.23,2.87l-1,.67.14.9a2.38,2.38,0,0,1-1.3,2.52l-1,.47v0a2.06,2.06,0,0,1-2.36,1.71h0l-.46-5.69Z" style="fill: rgb(255, 190, 157); transform-origin: 157.529px 310.983px;" id="elzlyowyee1pf" class="animable"></path><path d="M159,313.06a14.84,14.84,0,0,1-.64-3.13,15.08,15.08,0,0,1-.47-3.16,7.39,7.39,0,0,1,1,3.07A7.68,7.68,0,0,1,159,313.06Z" style="fill: rgb(235, 153, 110); transform-origin: 158.505px 309.915px;" id="elhc6nnoujk7a" class="animable"></path><path d="M156.69,315.94c-.15,0-.37-.86-.62-1.93a5.24,5.24,0,0,1-.3-2c.14-.05.55.78.8,1.89A3.59,3.59,0,0,1,156.69,315.94Z" style="fill: rgb(235, 153, 110); transform-origin: 156.275px 313.974px;" id="eleuc3fwaesuo" class="animable"></path></g><defs>     <filter id="active" height="200%">         <feMorphology in="SourceAlpha" result="DILATED" operator="dilate" radius="2"></feMorphology>                <feFlood flood-color="#32DFEC" flood-opacity="1" result="PINK"></feFlood>        <feComposite in="PINK" in2="DILATED" operator="in" result="OUTLINE"></feComposite>        <feMerge>            <feMergeNode in="OUTLINE"></feMergeNode>            <feMergeNode in="SourceGraphic"></feMergeNode>        </feMerge>    </filter>    <filter id="hover" height="200%">        <feMorphology in="SourceAlpha" result="DILATED" operator="dilate" radius="2"></feMorphology>                <feFlood flood-color="#ff0000" flood-opacity="0.5" result="PINK"></feFlood>        <feComposite in="PINK" in2="DILATED" operator="in" result="OUTLINE"></feComposite>        <feMerge>            <feMergeNode in="OUTLINE"></feMergeNode>            <feMergeNode in="SourceGraphic"></feMergeNode>        </feMerge>            <feColorMatrix type="matrix" values="0   0   0   0   0                0   1   0   0   0                0   0   0   0   0                0   0   0   1   0 "></feColorMatrix>    </filter></defs></svg>